<svg xmlns="http://www.w3.org/2000/svg" xml:space="preserve" viewBox="0 0 1920 673"><path d="M0 0h1920v673H0z" style="fill:#244d6a"/><path d="M24.7 19.9h40.9v11.5H24.7zm51.2 0h71.6v11.5H75.9zm81.9 0h61.4v11.5h-61.4zm71.6 0h40.9v11.5h-40.9zm-204.7 46h40.9v11.5H24.7zm51.2 0h10.2v11.5H75.9zm20.4 0h20.5v11.5H96.3zM24.7 112H127v11.5H24.7zm112.6 0h10.2v11.5h-10.2zm20.5 0h20.5v11.5h-20.5zM24.7 135h30.7v11.5H24.7zm40.9 0h10.2v11.5H65.6zm20.5 0h20.5v11.5H86.1zm30.7 0h81.9v11.5h-81.9zm-51.2 23.1h40.9v11.5H65.6zm51.2 0H127v11.5h-10.2zm20.5 0h20.5v11.5h-20.5zm-71.7 23h20.5v11.5H65.6zm30.7 0h61.4v11.5H96.3zm71.7 0h10.2v11.5H168zm20.4 0H301v11.5H188.4zm-81.8 23h102.3v11.5H106.6zm112.5 0h10.2v11.5h-10.2zm20.5 0H301v11.5h-61.4zm-174 23h30.7v11.5H65.6zm41 0H168v11.5h-61.4zm71.6 0h20.5v11.5h-20.5zm30.7 0h20.5v11.5h-20.5zm-102.3 23.1H127v11.5h-20.5zm30.7 0h61.4v11.5h-61.4zm71.6 0h20.5v11.5h-20.5zm30.7 0h143.3v11.5H239.6zm-92.1 23h143.3v11.5H147.5zm-40.9 23h51.2v11.5h-51.2zm40.9 23h143.3v11.5H147.5zm-81.9 23.1h174v11.5h-174zm-40.9 46h51.2v11.5H24.7zm61.4 0h10.2v11.5H86.1zm20.5 0h102.3v11.5H106.6zm112.5 0h10.2v11.5h-10.2zm20.5 0h122.8v11.5H239.6zm133 0h10.2v11.5h-10.2zm20.5 0h10.2v11.5h-10.2zm20.5 0h10.2v11.5h-10.2zm20.4 0h61.4v11.5H434zM24.7 434.4h30.7v11.5H24.7zm40.9 0h10.2v11.5H65.6zm20.5 0h20.5v11.5H86.1zm30.7 0h174v11.5h-174zm-51.2 23h20.5v11.5H65.6zm30.7 0h10.2v11.5H96.3zm20.5 0H127v11.5h-10.2zm-51.2 23h122.8v11.5H65.6zm133.1 0h10.2v11.5h-10.2zm20.4 0h10.2v11.5h-10.2zm-153.5 23h40.9V515H65.6zm51.2 0H127V515h-10.2zm20.5 0h51.2V515h-51.2zm-71.7 23.1h71.6V538H65.6zm81.9 0h10.2V538h-10.2zm20.5 0h10.2V538H168zm-143.3 46h61.4V584H24.7zm71.6 0h20.5V584H96.3zm30.8 0h501.5V584H127.1zM24.7 618.6h40.9v11.5H24.7zm51.2 0h184.2v11.5H75.9zm194.4 0h40.9v11.5h-40.9zm51.2 0H342v11.5h-20.5zm30.7 0h51.2v11.5h-51.2zm-286.6 23h184.2v11.5H65.6z" style="opacity:.2;fill:#fff"/><path d="M774.4 16h271.3v30.5H774.4zm298.4 0h27.1v30.5h-27.1zm54.3 0h162.8v30.5h-162.8zM665.9 77.1h81.4v30.5h-81.4zm108.5 0h162.8v30.5H774.4zm189.9 0h54.3v30.5h-54.3zm81.4 0h54.3v30.5h-54.3zm-271.3 61h54.3v30.5h-54.3zm81.4 0h162.8v30.5H855.8zm189.9 0h54.3v30.5h-54.3zm81.4 0h379.8v30.5h-379.8zm-244.2 61.1h379.8v30.5H883zm-108.5 61H910v30.5H774.4zm108.6 61h379.8v30.5H883zm-217.1 61.1h461.2v30.5H665.9zM557.4 504.4H693v30.5H557.4zm162.8 0h27.1v30.5h-27.1zm54.2 0h271.3v30.5H774.4zm298.4 0h27.1v30.5h-27.1zm54.3 0h325.5v30.5h-325.5zm352.7 0h27.1v30.5h-27.1zm54.2 0h27.1v30.5H1534zm54.3 0h27.1v30.5h-27.1zm54.2 0h162.8v30.5h-162.8zm-1085.1 122h81.4V657h-81.4zm108.5 0H693V657h-27.1zm54.3 0h54.3V657h-54.3zm81.4 0h461.2V657H801.6z" style="opacity:5.000000e-02;fill:#fff"/><path d="M406 29.3h1109.1v168.8H406z" style="fill:none"/><path d="M573.3 311.4c4 4.5 6 10.4 6 17.9V374h-15.5v-42.8c0-4.2-1.1-7.4-3.3-9.7s-5.1-3.4-8.8-3.4c-3.9 0-6.9 1.2-9.1 3.5q-3.3 3.45-3.3 9.9V374h-15.5v-90.3h15.5V306l-.4 12.6c.8-4.3 2.8-7.7 6.1-10.1 3.2-2.5 7.3-3.7 12.2-3.7 6.7-.1 12.1 2.1 16.1 6.6m80 16.4V374h-15.1v-12.7c-.6 4.4-2.6 7.8-6.2 10.3-3.5 2.5-8.2 3.7-13.9 3.7-6.9 0-12.4-2-16.4-5.9s-6-9-6-15.4c0-6.6 2.3-11.9 6.8-15.8s10.8-5.9 18.7-5.9h16.6v-4.8c0-6.8-4-10.3-12-10.3q-5.4 0-8.7 2.1c-2.1 1.4-3.3 3.4-3.6 5.9h-14.8c.3-6.1 2.9-11 7.7-14.8q7.2-5.7 19.5-5.7c8.7 0 15.4 2 20.2 6.1 4.8 4 7.2 9.7 7.2 17m-15.5 14.5H622c-3.4 0-6.1.9-8 2.8-2 1.9-3 4.3-3 7.3 0 3.1 1.1 5.5 3.2 7.4s5.1 2.8 9 2.8q6.75 0 10.8-3.3c2.6-2.2 4-5.2 4-8.9v-8.1zm70.9-37.6c-5.2 0-9.4 1.3-12.7 3.9s-5.3 6.1-6.1 10.6V306h-15.1v68h15.5v-41.7c0-4.5 1.1-8 3.2-10.5s5.3-3.7 9.4-3.7c4 0 7 1.1 9.2 3.3 2.1 2.2 3.2 5.3 3.2 9.5v5.7h15.5v-6.4c0-8-1.9-14.2-5.8-18.7-4-4.6-9.4-6.8-16.3-6.8m74.2 0c-5.2 0-9.4 1.3-12.7 3.9s-5.3 6.1-6.1 10.6V306H749v68h15.5v-41.7c0-4.5 1.1-8 3.2-10.5s5.3-3.7 9.4-3.7c4 0 7 1.1 9.2 3.3 2.1 2.2 3.2 5.3 3.2 9.5v5.7H805v-6.4c0-8-1.9-14.2-5.8-18.7-4-4.6-9.4-6.8-16.3-6.8m60.2-12.5c1.8 1.6 4.3 2.4 7.4 2.4s5.6-.8 7.4-2.4 2.7-3.8 2.7-6.5-.9-4.9-2.7-6.5-4.3-2.4-7.4-2.4-5.6.8-7.4 2.4-2.7 3.8-2.7 6.5.9 4.8 2.7 6.5m16.2 13.7h-36.2v14h20.8V360h-23.3v14h59.6v-14h-20.9zm94.4 0h-17.6l-10.5 16.7q-1.05 1.5-1.8 3.3c-.5 1.2-1 2.2-1.3 3-.2-.7-.7-1.7-1.2-3-.6-1.2-1.2-2.3-1.9-3.3l-10.5-16.7h-17.4l22.1 32.9-23.7 35.2h17.6l11.9-18.7c.7-1 1.3-2.1 1.9-3.4s1-2.3 1.4-3c.3.7.8 1.8 1.4 3 .6 1.3 1.3 2.4 1.9 3.4l11.8 18.7h17.6l-23.6-35.1zm23.2 34.4h39.6V326h-39.6zm119.6-23.3c1.9 3.9 2.8 8.5 2.8 13.7v18.4c0 7.8-2 14.1-6.1 18.9-4 4.8-9.4 7.2-16.1 7.2-4.8 0-8.8-1.2-12.1-3.7s-5.5-5.9-6.7-10.4l.5 16.1v19h-15.5v-90.3h15.1v12.5c1.2-4.3 3.5-7.6 6.7-10.1q4.8-3.6 12-3.6c4.4 0 8.2 1.1 11.6 3.2 3.3 2.2 5.9 5.2 7.8 9.1m-12.7 14.2q0-6.75-3.3-9.9c-2.2-2.1-5.3-3.2-9.2-3.2s-7 1.2-9.2 3.6-3.3 5.8-3.3 10.1v16.3c0 4.4 1.1 7.8 3.3 10.1 2.2 2.4 5.3 3.6 9.2 3.6s7-1.1 9.2-3.2q3.3-3.15 3.3-9.9zm65.6 9.5c-.7 2.1-1.5 4.3-2.2 6.7s-1.2 4.7-1.4 6.7c-.3-2.1-.9-4.3-1.6-6.7s-1.5-4.7-2.2-6.7l-13.1-34.8h-16.3l25.6 64.3-9.6 26h16.2l33.1-90.3h-16.3zm76.2 17c-1.4-1.5-2.2-3.6-2.2-6.1v-67.9h-37.8v14h22.4V352c0 6.6 2 11.9 6.1 16 4.1 4 9.5 6.1 16.3 6.1h21v-14h-19.9c-2.5-.1-4.4-.9-5.9-2.4m62.8-65.5c1.8 1.6 4.3 2.4 7.4 2.4s5.6-.8 7.4-2.4 2.7-3.8 2.7-6.5-.9-4.9-2.7-6.5-4.3-2.4-7.4-2.4-5.6.8-7.4 2.4-2.7 3.8-2.7 6.5.9 4.8 2.7 6.5m16.2 13.7h-36.2v14h20.8V360h-23.3v14h59.6v-14h-20.9zm91.5 24.9v18.4c0 7.9-2 14.2-6.1 18.9s-9.4 7.1-16 7.1q-7.2 0-12-3.6c-3.2-2.4-5.4-5.7-6.7-10V374h-15.1v-90.3h15.5v19l-.5 15.6c1.3-4.3 3.6-7.6 6.9-10s7.2-3.6 11.9-3.6c6.7 0 12 2.3 16.1 7 4 4.8 6 11.1 6 19.1m-15.4.4q0-6.75-3.3-9.9c-2.2-2.1-5.3-3.2-9.2-3.2s-7 1.2-9.2 3.6-3.3 5.8-3.3 10.1v16.3c0 4.4 1.1 7.8 3.3 10.1 2.2 2.4 5.3 3.6 9.2 3.6s7-1.1 9.2-3.2q3.3-3.15 3.3-9.9z" style="fill:#fff"/></svg>