<?xml version="1.0" encoding="UTF-8" standalone="no"?>
<!-- Created with Inkscape (http://www.inkscape.org/) -->

<svg
   width="176.75757"
   height="176.88878"
   viewBox="0 0 176.75757 176.88878"
   version="1.1"
   id="svg5"
   inkscape:version="1.1.1 (c3084ef, 2021-09-22)"
   sodipodi:docname="hochfrequenz-logo.svg"
   xmlns:inkscape="http://www.inkscape.org/namespaces/inkscape"
   xmlns:sodipodi="http://sodipodi.sourceforge.net/DTD/sodipodi-0.dtd"
   xmlns="http://www.w3.org/2000/svg"
   xmlns:svg="http://www.w3.org/2000/svg">
  <sodipodi:namedview
     id="namedview7"
     pagecolor="#ffffff"
     bordercolor="#999999"
     borderopacity="1"
     inkscape:pageshadow="0"
     inkscape:pageopacity="0"
     inkscape:pagecheckerboard="0"
     inkscape:document-units="mm"
     showgrid="false"
     fit-margin-top="0"
     fit-margin-left="0"
     fit-margin-right="0"
     fit-margin-bottom="0"
     inkscape:zoom="0.64052329"
     inkscape:cx="130.36216"
     inkscape:cy="412.163"
     inkscape:window-width="1512"
     inkscape:window-height="916"
     inkscape:window-x="3840"
     inkscape:window-y="136"
     inkscape:window-maximized="0"
     inkscape:current-layer="layer1" />
  <defs
     id="defs2">
    <clipPath
       clipPathUnits="userSpaceOnUse"
       id="clipPath23">
      <path
         d="M 0,568.156 H 579.236 V 0 H 0 Z"
         id="path21" />
    </clipPath>
  </defs>
  <g
     inkscape:label="Layer 1"
     inkscape:groupmode="layer"
     id="layer1"
     transform="translate(-16.541937,-55.305267)">
    <g
       id="g19"
       clip-path="url(#clipPath23)"
       transform="matrix(0.35277777,0,0,-0.35277777,0.01017023,243.73675)"
       style="opacity:0.2">
      <g
         id="g25"
         transform="translate(122.444,32.7195)">
        <path
           d="m 0,0 h -56.104 c -11,0 -19.898,9.123 -19.463,20.115 10.594,267.191 231.277,481.302 501.029,481.302 v -56.02 c 0,-10.98 -8.688,-19.892 -19.658,-20.393 C 180.29,414.697 0,228.005 0,0"
           style="fill:#6ead83;fill-opacity:0.5;fill-rule:nonzero;stroke:none"
           id="path27" />
      </g>
      <g
         id="g29"
         transform="translate(273.7828,32.7195)">
        <path
           d="m 0,0 h -55.926 c -11.228,0 -20.091,9.482 -19.435,20.69 10.744,183.439 163.389,329.388 349.485,329.388 v -56.263 c 0,-10.709 -8.273,-19.617 -18.957,-20.35 C 112.819,263.696 0,144.774 0,0"
           style="fill:#6ead83;fill-opacity:0.5;fill-rule:nonzero;stroke:none"
           id="path31" />
      </g>
      <g
         id="g33"
         transform="translate(425.7667,32.7195)">
        <path
           d="m 0,0 h -55.445 c -11.653,0 -20.604,10.17 -19.334,21.753 10.866,99.032 95.031,176.341 196.919,176.341 v -57.011 c 0,-10.046 -7.283,-18.755 -17.229,-20.165 C 45.688,112.522 0,61.497 0,0"
           style="fill:#6ead83;fill-opacity:0.5;fill-rule:nonzero;stroke:none"
           id="path35" />
      </g>
    </g>
  </g>
</svg>
